<?xml version="1.0" encoding="UTF-8" standalone="no"?>
<svg width="208px" height="40px" viewBox="0 0 208 40" version="1.1" xmlns="http://www.w3.org/2000/svg" xmlns:xlink="http://www.w3.org/1999/xlink">
    <!-- Generator: Sketch 46.2 (44496) - http://www.bohemiancoding.com/sketch -->
    <title>品牌/Flowerplus-头部</title>
    <desc>Created with Sketch.</desc>
    <defs>
        <polygon id="path-1" points="0 24.0426 200.229 24.0426 200.229 -0.0004 0 -0.0004"></polygon>
    </defs>
    <g id="Symbols" stroke="none" stroke-width="1" fill="none" fill-rule="evenodd">
        <g id="品牌/Flowerplus-头部">
            <g id="Page-1" transform="translate(1.000000, 8.000000)">
                <path d="M162.3513,19.0475 L161.8773,17.5045 C161.8493,17.4145 161.8793,17.3175 161.9513,17.2555 C163.9753,15.5345 165.4883,13.5135 166.5043,11.2255 C166.5593,11.1035 166.7013,11.0495 166.8223,11.1075 L168.2293,11.7815 C168.3463,11.8375 168.4003,11.9775 168.3483,12.0965 C167.9733,12.9605 167.5163,13.8045 166.9723,14.5995 L166.9723,23.8025 C166.9723,23.9355 166.8653,24.0425 166.7333,24.0425 L165.1413,24.0425 C165.0093,24.0425 164.9023,23.9355 164.9023,23.8025 L164.9023,17.1605 C164.2383,17.8595 163.5113,18.5275 162.7363,19.1645 C162.6033,19.2725 162.4013,19.2105 162.3513,19.0475 Z" id="Fill-1" fill="#231916"></path>
                <path d="M166.2692,7.4606 L166.2692,6.1776 C166.2692,6.0456 166.3762,5.9386 166.5092,5.9386 L168.0432,5.9386 C168.1752,5.9386 168.2832,6.0456 168.2832,6.1776 L168.2832,7.4606 L173.3072,7.4606 L173.3072,6.1776 C173.3072,6.0456 173.4152,5.9386 173.5462,5.9386 L175.0822,5.9386 C175.2152,5.9386 175.3232,6.0456 175.3232,6.1776 L175.3232,7.4606 L179.0702,7.4606 C179.2022,7.4606 179.3092,7.5676 179.3092,7.6996 L179.3092,9.1366 C179.3092,9.2696 179.2022,9.3766 179.0702,9.3766 L175.3232,9.3766 L175.3232,10.4816 C175.3232,10.6146 175.2152,10.7216 175.0822,10.7216 L173.5462,10.7216 C173.4152,10.7216 173.3072,10.6146 173.3072,10.4816 L173.3072,9.3766 L168.2832,9.3766 L168.2832,10.4816 C168.2832,10.6146 168.1752,10.7216 168.0432,10.7216 L166.5092,10.7216 C166.3762,10.7216 166.2692,10.6146 166.2692,10.4816 L166.2692,9.3766 L162.5202,9.3766 C162.3882,9.3766 162.2812,9.2696 162.2812,9.1366 L162.2812,7.6996 C162.2812,7.5676 162.3882,7.4606 162.5202,7.4606 L166.2692,7.4606 Z" id="Fill-3" fill="#231916"></path>
                <path d="M173.2097,23.6911 C171.8017,23.6911 171.0997,22.9671 171.0997,21.5211 L171.0997,18.9981 C170.4767,19.2841 169.8537,19.5681 169.2287,19.8241 C169.1217,19.8681 168.9997,19.8291 168.9367,19.7331 L168.0727,18.4211 C167.9897,18.2951 168.0457,18.1251 168.1857,18.0681 C169.2187,17.6521 170.1997,17.2201 171.0997,16.7891 L171.0997,11.5741 C171.0997,11.4411 171.2057,11.3341 171.3387,11.3341 L172.9127,11.3341 C173.0457,11.3341 173.1517,11.4411 173.1517,11.5741 L173.1517,15.6751 C174.9637,14.5731 176.4727,13.3811 177.6787,12.1011 C177.7707,12.0031 177.9227,12.0011 178.0177,12.0971 L179.1007,13.1951 C179.1937,13.2901 179.1937,13.4441 179.0997,13.5381 C177.3967,15.2081 175.4217,16.6761 173.1517,17.9431 L173.1517,21.0711 C173.1517,21.5991 173.3667,21.8731 173.7967,21.8731 L176.4747,21.8731 C176.9057,21.8731 177.2177,21.7361 177.4147,21.4621 C177.6297,21.1911 177.7797,20.4351 177.8627,19.1941 C177.8737,19.0391 178.0267,18.9271 178.1757,18.9761 L179.6327,19.4461 C179.7397,19.4821 179.8097,19.5931 179.7977,19.7061 C179.6007,21.6191 179.2747,22.7651 178.8417,23.1441 C178.4117,23.4951 177.7667,23.6911 176.8657,23.6911 L173.2097,23.6911 Z" id="Fill-5" fill="#231916"></path>
                <path d="M187.6101,6.1779 L187.6101,8.3809 L191.8161,8.3809 C191.9491,8.3809 192.0561,8.4909 192.0561,8.6229 C192.0531,14.9989 191.9571,20.0349 191.7621,21.5409 C191.5671,22.9679 190.5891,23.6909 188.8701,23.6909 C188.5821,23.6909 188.1131,23.6589 187.4931,23.5929 C187.3941,23.5819 187.3071,23.5119 187.2811,23.4169 L186.9091,22.0549 C186.8641,21.8929 187.0011,21.7389 187.1691,21.7559 C187.6841,21.8079 188.1371,21.8339 188.5381,21.8339 C189.2811,21.8339 189.7291,21.4049 189.8671,20.5829 C189.9641,19.7029 190.0231,15.5359 190.0621,10.3739 L187.6101,10.3739 C187.4971,15.9159 186.7901,21.2369 184.4941,23.9569 C184.4071,24.0599 184.2501,24.0669 184.1481,23.9769 L182.9641,22.9269 C182.8661,22.8409 182.8581,22.6979 182.9411,22.5989 C184.9461,20.2039 185.4831,15.3339 185.5781,10.3739 L183.4771,10.3739 C183.3451,10.3739 183.2381,10.2669 183.2381,10.1349 L183.2381,8.6199 C183.2381,8.4879 183.3451,8.3809 183.4771,8.3809 L185.5781,8.3809 L185.5781,6.1779 C185.5781,6.0459 185.6851,5.9389 185.8171,5.9389 L187.3711,5.9389 C187.5041,5.9389 187.6101,6.0459 187.6101,6.1779" id="Fill-7" fill="#231916"></path>
                <mask id="mask-2" fill="white">
                    <use xlink:href="#path-1"></use>
                </mask>
                <g id="Clip-10"></g>
                <path d="M195.399,21.7356 L198.234,21.7356 L198.234,10.3156 L195.399,10.3156 L195.399,21.7356 Z M193.445,8.6206 L193.445,23.4516 C193.445,23.5836 193.552,23.6906 193.684,23.6906 L195.399,23.6906 L198.234,23.6906 L199.989,23.6906 C200.122,23.6906 200.228,23.5836 200.228,23.4516 L200.228,8.6206 C200.228,8.4876 200.122,8.3806 199.989,8.3806 L193.684,8.3806 C193.552,8.3806 193.445,8.4876 193.445,8.6206 L193.445,8.6206 Z" id="Fill-9" fill="#231916" mask="url(#mask-2)"></path>
                <path d="M0.0002,6.6681 C0.0002,6.4161 0.2012,6.1901 0.4772,6.1901 L10.7112,6.1901 C10.9872,6.1901 11.1882,6.4161 11.1882,6.6681 L11.1882,8.7291 C11.1882,8.9811 10.9872,9.2071 10.7112,9.2071 L3.2682,9.2071 L3.2682,13.9341 L9.4782,13.9341 C9.7312,13.9341 9.9572,14.1601 9.9572,14.4121 L9.9572,16.4741 C9.9572,16.7251 9.7312,16.9521 9.4782,16.9521 L3.2682,16.9521 L3.2682,23.3131 C3.2682,23.5641 3.0422,23.7911 2.7912,23.7911 L0.4772,23.7911 C0.2012,23.7911 0.0002,23.5641 0.0002,23.3131 L0.0002,6.6681 Z" id="Fill-11" fill="#231916" mask="url(#mask-2)"></path>
                <path d="M14.0139,6.6681 C14.0139,6.4161 14.2149,6.1901 14.4909,6.1901 L16.8049,6.1901 C17.0559,6.1901 17.2809,6.4161 17.2809,6.6681 L17.2809,20.7741 L23.6939,20.7741 C23.9709,20.7741 24.1729,21.0001 24.1729,21.2521 L24.1729,23.3131 C24.1729,23.5641 23.9709,23.7911 23.6939,23.7911 L14.4909,23.7911 C14.2149,23.7911 14.0139,23.5641 14.0139,23.3131 L14.0139,6.6681 Z" id="Fill-12" fill="#231916" mask="url(#mask-2)"></path>
                <path d="M34.2575,20.7741 C37.4265,20.7741 40.0415,18.1831 40.0415,15.0151 C40.0415,11.8471 37.4265,9.2071 34.2575,9.2071 C31.0905,9.2071 28.5015,11.8471 28.5015,15.0151 C28.5015,18.1831 31.0905,20.7741 34.2575,20.7741 M34.2575,5.9391 C39.2865,5.9391 43.3115,9.9871 43.3115,15.0151 C43.3115,20.0441 39.2865,24.0431 34.2575,24.0431 C29.2315,24.0431 25.2315,20.0441 25.2315,15.0151 C25.2315,9.9871 29.2315,5.9391 34.2575,5.9391" id="Fill-13" fill="#231916" mask="url(#mask-2)"></path>
                <path d="M44.9816,6.7936 C44.8806,6.4416 45.0826,6.1896 45.4336,6.1896 L47.7476,6.1896 C47.9496,6.1896 48.1506,6.3656 48.1996,6.5416 L50.8166,16.5736 L50.9146,16.5736 L54.9146,6.2146 C54.9636,6.0646 55.0886,5.9386 55.3416,5.9386 L55.7946,5.9386 C56.0446,5.9386 56.1696,6.0646 56.2216,6.2146 L60.2436,16.5736 L60.3436,16.5736 L62.9086,6.5416 C62.9606,6.3656 63.1616,6.1896 63.3606,6.1896 L65.6746,6.1896 C66.0266,6.1896 66.2276,6.4416 66.1276,6.7936 L61.3756,23.6896 C61.3266,23.8916 61.1256,24.0426 60.9236,24.0426 L60.5206,24.0426 C60.2946,24.0426 60.1426,23.9166 60.0936,23.7666 L55.5926,12.3756 L55.4676,12.3756 L51.0156,23.7666 C50.9416,23.9166 50.8406,24.0426 50.5876,24.0426 L50.1876,24.0426 C49.9856,24.0426 49.7846,23.8916 49.7326,23.6896 L44.9816,6.7936 Z" id="Fill-14" fill="#231916" mask="url(#mask-2)"></path>
                <path d="M68.8298,6.6681 C68.8298,6.4161 69.0318,6.1901 69.3068,6.1901 L79.5418,6.1901 C79.8168,6.1901 80.0178,6.4161 80.0178,6.6681 L80.0178,8.7291 C80.0178,8.9811 79.8168,9.2071 79.5418,9.2071 L72.0978,9.2071 L72.0978,13.3311 L78.3088,13.3311 C78.5608,13.3311 78.7878,13.5571 78.7878,13.8091 L78.7878,15.8961 C78.7878,16.1721 78.5608,16.3741 78.3088,16.3741 L72.0978,16.3741 L72.0978,20.7741 L79.5418,20.7741 C79.8168,20.7741 80.0178,21.0001 80.0178,21.2521 L80.0178,23.3131 C80.0178,23.5641 79.8168,23.7911 79.5418,23.7911 L69.3068,23.7911 C69.0318,23.7911 68.8298,23.5641 68.8298,23.3131 L68.8298,6.6681 Z" id="Fill-15" fill="#231916" mask="url(#mask-2)"></path>
                <path d="M90.7151,14.2106 C92.0471,14.2106 93.2041,13.0546 93.2041,11.6466 C93.2041,10.3146 92.0471,9.2076 90.7151,9.2076 L86.6171,9.2076 L86.6171,14.2106 L90.7151,14.2106 Z M83.3221,6.6686 C83.3221,6.4166 83.5241,6.1896 83.7991,6.1896 L90.9901,6.1896 C94.0091,6.1896 96.4741,8.6046 96.4741,11.5966 C96.4741,13.9096 94.9381,15.7946 92.7521,16.6746 L96.1961,23.0616 C96.3731,23.3896 96.1961,23.7906 95.7691,23.7906 L93.1281,23.7906 C92.9021,23.7906 92.7761,23.6656 92.7271,23.5646 L89.3811,16.9016 L86.5901,16.9016 L86.5901,23.3136 C86.5901,23.5646 86.3641,23.7906 86.1131,23.7906 L83.7991,23.7906 C83.5241,23.7906 83.3221,23.5646 83.3221,23.3136 L83.3221,6.6686 Z" id="Fill-16" fill="#231916" mask="url(#mask-2)"></path>
                <path d="M107.323,14.3371 C108.731,14.3371 109.812,13.2061 109.812,11.7221 C109.812,10.3381 108.731,9.2831 107.323,9.2831 L103.193,9.2831 L103.193,14.3371 L107.323,14.3371 Z M99.926,6.6681 C99.926,6.4161 100.127,6.1901 100.402,6.1901 L107.422,6.1901 C110.514,6.1901 113.055,8.7051 113.055,11.7461 C113.055,14.8651 110.514,17.4041 107.449,17.4041 L103.193,17.4041 L103.193,23.3131 C103.193,23.5651 102.968,23.7911 102.717,23.7911 L100.402,23.7911 C100.127,23.7911 99.926,23.5651 99.926,23.3131 L99.926,6.6681 Z" id="Fill-17" fill="#231916" mask="url(#mask-2)"></path>
                <path d="M115.8532,6.6681 C115.8532,6.4161 116.0542,6.1901 116.3302,6.1901 L118.6442,6.1901 C118.8952,6.1901 119.1212,6.4161 119.1212,6.6681 L119.1212,20.7741 L125.5332,20.7741 C125.8102,20.7741 126.0122,21.0001 126.0122,21.2521 L126.0122,23.3131 C126.0122,23.5641 125.8102,23.7911 125.5332,23.7911 L116.3302,23.7911 C116.0542,23.7911 115.8532,23.5641 115.8532,23.3131 L115.8532,6.6681 Z" id="Fill-18" fill="#231916" mask="url(#mask-2)"></path>
                <path d="M127.9773,6.6681 C127.9773,6.4161 128.2043,6.1901 128.4563,6.1901 L130.8443,6.1901 C131.1223,6.1901 131.3213,6.4161 131.3213,6.6681 L131.3213,17.1521 C131.3213,19.2901 132.7813,20.7741 134.9673,20.7741 C137.1563,20.7741 138.6403,19.2901 138.6403,17.1781 L138.6403,6.6681 C138.6403,6.4161 138.8413,6.1901 139.1173,6.1901 L141.5043,6.1901 C141.7573,6.1901 141.9843,6.4161 141.9843,6.6681 L141.9843,17.3291 C141.9843,21.1511 138.9403,24.0431 134.9673,24.0431 C131.0213,24.0431 127.9773,21.1511 127.9773,17.3291 L127.9773,6.6681 Z" id="Fill-19" fill="#231916" mask="url(#mask-2)"></path>
                <path d="M145.362,22.0807 C145.111,21.8797 145.01,21.7297 145.237,21.3267 L146.14,19.7677 C146.342,19.4147 146.77,19.4147 146.996,19.5917 C148.028,20.3707 149.16,21.1507 150.794,21.1507 C152.101,21.1507 153.082,20.2957 153.082,19.2147 C153.082,17.9327 152.001,17.0517 149.887,16.1967 C147.524,15.2427 145.161,13.7337 145.161,10.7667 C145.161,8.5277 146.821,5.9387 150.818,5.9387 C153.383,5.9387 155.344,7.2467 155.847,7.6237 C156.098,7.7737 156.175,8.2017 155.998,8.4527 L155.042,9.8867 C154.841,10.1877 154.465,10.3887 154.162,10.1877 C153.082,9.5097 152.049,8.8057 150.669,8.8057 C149.234,8.8057 148.455,9.6097 148.455,10.5647 C148.455,11.7467 149.386,12.5507 151.423,13.3817 C153.86,14.3617 156.678,15.8197 156.678,19.0637 C156.678,21.6537 154.44,24.0427 150.894,24.0427 C147.725,24.0427 146.091,22.7097 145.362,22.0807" id="Fill-20" fill="#231916" mask="url(#mask-2)"></path>
                <path d="M39.5041,3.047 L29.0381,3.047 C28.8391,3.047 28.6771,2.885 28.6771,2.686 L28.6771,0.361 C28.6771,0.162 28.8391,0 29.0381,0 L39.5041,0 C39.7041,0 39.8651,0.162 39.8651,0.361 L39.8651,2.686 C39.8651,2.885 39.7041,3.047 39.5041,3.047" id="Fill-21" fill="#231916" mask="url(#mask-2)"></path>
            </g>
        </g>
    </g>
</svg>