<svg xmlns="http://www.w3.org/2000/svg" viewBox="0 0 16 11.97"><defs><style>.cls-1{fill:#30b287;}</style></defs><title>Asset 1</title><g id="Layer_2" data-name="Layer 2"><g id="Layer_1-2" data-name="Layer 1"><path class="cls-1" d="M15.31,3.8V6.36l.61.7-1.18,1-1.08-1,.65-.72V4.22C10.82,5.65,9.88,6.09,9.1,6.44a2.45,2.45,0,0,1-2.1,0C6.23,6.21,2.75,4.89.94,4-.28,3.45-.35,3.09,1,2.6,2.67,2,5.32.93,6.82.37,7.7,0,8.17-.18,9,.23c1.45.59,4.6,1.82,6.25,2.5,1.44.62.47.82.07,1.07Zm-6,3.7c.84-.35,2-.92,3.22-1.44v4.22A6.39,6.39,0,0,1,8.07,12a6.83,6.83,0,0,1-4.69-1.69V6.34c1,.38,2,.71,3.34,1.16a3.41,3.41,0,0,0,2.55,0Z"/></g></g></svg>