<?xml version="1.0" encoding="UTF-8" standalone="no"?>
<svg width="89px" height="88px" viewBox="0 0 89 88" version="1.1" xmlns="http://www.w3.org/2000/svg" xmlns:xlink="http://www.w3.org/1999/xlink">
    <!-- Generator: Sketch 46.1 (44463) - http://www.bohemiancoding.com/sketch -->
    <title>Rectangle 2 Copy</title>
    <desc>Created with Sketch.</desc>
    <defs></defs>
    <g id="订单流程" stroke="none" stroke-width="1" fill="none" fill-rule="evenodd">
        <g id="说明：" transform="translate(-143.000000, -304.000000)">
            <g id="background" fill="#F5F5F5">
                <rect id="bg" x="0" y="0" width="375" height="667"></rect>
            </g>
            <g id="订单已生成" transform="translate(0.000000, 64.000000)" fill="#FFFFFF">
                <rect id="Cell" x="0" y="0" width="375" height="602.242838"></rect>
            </g>
            <g id="确认付款" transform="translate(16.000000, 291.000000)">
                <rect id="Rectangle-10" stroke="#999999" stroke-width="0.5" x="0.25" y="0.25" width="341.5" height="39.5" rx="2"></rect>
                <text id="查看订单详情" font-family="PingFangSC-Regular, PingFang SC" font-size="14" font-weight="normal" fill="#333333">
                    <tspan x="129" y="25">查看订单详情</tspan>
                </text>
            </g>
            <text id="返回首页" font-family="PingFangSC-Regular, PingFang SC" font-size="14" font-weight="normal" text-decoration="underline" fill="#333333">
                <tspan x="160" y="366">返回首页</tspan>
            </text>
            <rect id="Rectangle-29" fill="#000000" opacity="0.6" x="0" y="63" width="375" height="604"></rect>
            <rect id="Rectangle" fill="#FFFFFF" x="32" y="224" width="312" height="256" rx="2"></rect>
            <g id="Icon/当前绑定的手机号码" transform="translate(143.500000, 304.000000)">
                <g id="Group-2">
                    <rect id="Rectangle-2" stroke="#CCCCCC" x="20.5" y="0.5" width="47" height="87" rx="8"></rect>
                    <rect id="Rectangle-2-Copy" stroke="#CCCCCC" stroke-width="0.5" x="25.25" y="10.25" width="37.5" height="64.5833333" rx="2"></rect>
                    <circle id="Oval-13" fill="#CCCCCC" cx="38.5" cy="5.5" r="1"></circle>
                    <circle id="Oval" stroke="#CCCCCC" fill="#E5E5E5" cx="43.6666667" cy="81.6666667" r="3.66666667"></circle>
                    <rect id="Rectangle-3" fill="#CCCCCC" x="41" y="5" width="8" height="1" rx="0.5"></rect>
                    <path d="M43.9824216,32 C37.917027,32 33,36.917 33,42.9824216 C33,49.0478431 37.917,53.9648431 43.9824216,53.9648431 C50.0478431,53.9648431 54.9648431,49.0478431 54.9648431,42.9824216 C54.9648431,36.917 50.0478431,32 43.9824216,32 Z M43.9674314,46.8324216 L41.8826618,48.9261961 C41.4049167,49.4059902 40.6286078,49.4077426 40.1488137,48.9299975 L38.0549853,46.8452279 C37.5751912,46.3674828 37.5734926,45.591174 38.0512647,45.1113799 L40.1359534,43.0175515 C40.6136985,42.5378113 41.3900074,42.5360858 41.8698015,43.0138578 L42.2769363,43.4190784 L41.6410931,44.0576985 L41.5830466,43.9998407 C41.2631569,43.681326 40.7456176,43.6824853 40.4271029,44.002375 L39.0372745,45.3982426 C38.7187598,45.7181324 38.7198652,46.2355907 39.0397549,46.5541054 L40.4357304,47.9440147 C40.7555931,48.2624755 41.2730515,48.2613701 41.5915662,47.9414534 L42.9814755,46.5456127 C43.2999363,46.2256961 43.2988309,45.7081838 42.9789412,45.3896691 L42.9207328,45.3317304 L43.5566029,44.6931912 L43.9637108,45.0985735 C44.4435049,45.5762647 44.4452304,46.3525735 43.9674853,46.8324216 L43.9674314,46.8324216 Z M45.5744559,40.7499608 C45.7492966,40.5729632 46.0345956,40.5711569 46.2115931,40.7460515 C46.3885907,40.920973 46.3903162,41.2062721 46.2154755,41.3832426 L42.4155686,45.2295221 C42.2406471,45.4065196 41.955348,45.4082451 41.7783775,45.2334044 C41.6013529,45.0585098 41.5996275,44.7732377 41.7744951,44.5962402 L45.5744559,40.7499608 Z M49.9136593,40.8535711 L47.8288897,42.9473995 C47.3511446,43.4271936 46.5748358,43.4288652 46.0950417,42.9511201 L45.6853186,42.5431495 L46.3211618,41.9046103 L46.3818235,41.9650833 C46.7017132,42.283598 47.2192525,42.2824387 47.5377672,41.9625221 L48.9276225,40.5666544 C49.2461103,40.2467647 49.2450049,39.7293064 48.9251422,39.4108186 L47.5292745,38.0209093 C47.2093848,37.7023946 46.6918456,37.7035539 46.3733309,38.0234436 L44.9835025,39.4193113 C44.6649877,39.739201 44.6660931,40.2567402 44.9859828,40.575174 L45.0466716,40.6355662 L44.4108015,41.2741863 L44.0012132,40.8662966 C43.5214191,40.3885515 43.5197206,39.6122696 43.9974926,39.1324755 L46.0821814,37.0386201 C46.5599265,36.558826 47.3362353,36.5571544 47.8160294,37.0349265 L49.9098578,39.1196961 C50.3896789,39.5974412 50.3913505,40.373723 49.9136324,40.8535711 L49.9136593,40.8535711 L49.9136593,40.8535711 Z" id="绑定" fill="#666666"></path>
                </g>
            </g>
            <g id="Group-2" transform="translate(143.500000, 304.000000)">
                <rect id="Rectangle-2" stroke="#CCCCCC" x="20.5" y="0.5" width="47" height="87" rx="8"></rect>
                <rect id="Rectangle-2-Copy" stroke="#CCCCCC" stroke-width="0.5" x="25.25" y="10.25" width="37.5" height="64.5833333" rx="2"></rect>
                <circle id="Oval-13" fill="#CCCCCC" cx="38.5" cy="5.5" r="1"></circle>
                <circle id="Oval" stroke="#CCCCCC" fill="#E5E5E5" cx="43.6666667" cy="81.6666667" r="3.66666667"></circle>
                <rect id="Rectangle-3" fill="#CCCCCC" x="41" y="5" width="8" height="1" rx="0.5"></rect>
                <path d="M43.9824216,32 C37.917027,32 33,36.917 33,42.9824216 C33,49.0478431 37.917,53.9648431 43.9824216,53.9648431 C50.0478431,53.9648431 54.9648431,49.0478431 54.9648431,42.9824216 C54.9648431,36.917 50.0478431,32 43.9824216,32 Z M43.9674314,46.8324216 L41.8826618,48.9261961 C41.4049167,49.4059902 40.6286078,49.4077426 40.1488137,48.9299975 L38.0549853,46.8452279 C37.5751912,46.3674828 37.5734926,45.591174 38.0512647,45.1113799 L40.1359534,43.0175515 C40.6136985,42.5378113 41.3900074,42.5360858 41.8698015,43.0138578 L42.2769363,43.4190784 L41.6410931,44.0576985 L41.5830466,43.9998407 C41.2631569,43.681326 40.7456176,43.6824853 40.4271029,44.002375 L39.0372745,45.3982426 C38.7187598,45.7181324 38.7198652,46.2355907 39.0397549,46.5541054 L40.4357304,47.9440147 C40.7555931,48.2624755 41.2730515,48.2613701 41.5915662,47.9414534 L42.9814755,46.5456127 C43.2999363,46.2256961 43.2988309,45.7081838 42.9789412,45.3896691 L42.9207328,45.3317304 L43.5566029,44.6931912 L43.9637108,45.0985735 C44.4435049,45.5762647 44.4452304,46.3525735 43.9674853,46.8324216 L43.9674314,46.8324216 Z M45.5744559,40.7499608 C45.7492966,40.5729632 46.0345956,40.5711569 46.2115931,40.7460515 C46.3885907,40.920973 46.3903162,41.2062721 46.2154755,41.3832426 L42.4155686,45.2295221 C42.2406471,45.4065196 41.955348,45.4082451 41.7783775,45.2334044 C41.6013529,45.0585098 41.5996275,44.7732377 41.7744951,44.5962402 L45.5744559,40.7499608 Z M49.9136593,40.8535711 L47.8288897,42.9473995 C47.3511446,43.4271936 46.5748358,43.4288652 46.0950417,42.9511201 L45.6853186,42.5431495 L46.3211618,41.9046103 L46.3818235,41.9650833 C46.7017132,42.283598 47.2192525,42.2824387 47.5377672,41.9625221 L48.9276225,40.5666544 C49.2461103,40.2467647 49.2450049,39.7293064 48.9251422,39.4108186 L47.5292745,38.0209093 C47.2093848,37.7023946 46.6918456,37.7035539 46.3733309,38.0234436 L44.9835025,39.4193113 C44.6649877,39.739201 44.6660931,40.2567402 44.9859828,40.575174 L45.0466716,40.6355662 L44.4108015,41.2741863 L44.0012132,40.8662966 C43.5214191,40.3885515 43.5197206,39.6122696 43.9974926,39.1324755 L46.0821814,37.0386201 C46.5599265,36.558826 47.3362353,36.5571544 47.8160294,37.0349265 L49.9098578,39.1196961 C50.3896789,39.5974412 50.3913505,40.373723 49.9136324,40.8535711 L49.9136593,40.8535711 L49.9136593,40.8535711 Z" id="绑定" fill="#666666"></path>
            </g>
        </g>
    </g>
</svg>