<?xml version="1.0" encoding="UTF-8" standalone="no"?>
<svg width="24px" height="25px" viewBox="0 0 24 25" version="1.1" xmlns="http://www.w3.org/2000/svg" xmlns:xlink="http://www.w3.org/1999/xlink">
    <!-- Generator: Sketch 45.2 (43514) - http://www.bohemiancoding.com/sketch -->
    <title>鲜花-秒杀</title>
    <desc>Created with Sketch.</desc>
    <defs></defs>
    <g id="会员中心" stroke="none" stroke-width="1" fill="none" fill-rule="evenodd">
        <g id="微信-会员中心首页-copy-12" transform="translate(-128.000000, -571.000000)">
            <g id="background" transform="translate(0.000000, 43.000000)" fill="#F5F5F5">
                <rect id="bg" x="0" y="0" width="375" height="857"></rect>
            </g>
            <g id="收花人查询-copy" transform="translate(0.000000, 511.000000)">
                <g id="111" transform="translate(0.000000, 44.000000)">
                    <g id="我的积分-copy-2" transform="translate(94.000000, 0.000000)">
                        <rect id="Rectangle-3" fill="#FFFFFF" x="0" y="0" width="94" height="88"></rect>
                        <path d="M36.4883085,30.6782718 C37.1380956,31.221265 37.9232153,31.5507189 38.7349431,31.6349699 C37.4628105,32.9785964 37.2383078,35.0538224 38.3075754,36.618743 C38.7314608,37.2394614 39.2817202,37.7465476 39.9430256,38.1260722 C40.604331,38.5055968 41.3238827,38.7274763 42.0820072,38.785419 C42.1954938,38.7941104 42.308266,38.7983537 42.420443,38.7983537 C43.4093801,38.7983537 44.3451604,38.4641005 45.08507,37.8408654 C45.5575585,37.4428168 45.9215607,36.951972 46.1589806,36.4039454 C46.8668949,37.8695441 48.3870133,38.8504728 50.0292197,38.7680654 C50.7885349,38.7303442 51.5140987,38.5278959 52.1856425,38.1661931 C52.8570673,37.8045196 53.4211666,37.3121824 53.862017,36.702994 C54.5148399,35.8013122 54.7774691,34.6507403 54.5823722,33.5464932 C54.4491528,32.7924775 54.1228009,32.1151919 53.6400738,31.5726669 C54.3900731,31.4137635 55.1012614,31.0407648 55.670718,30.4950208 C56.4781599,29.7212518 56.9313322,28.6933545 56.9465709,27.6006374 C56.9569285,26.8531475 56.7978747,26.128425 56.4738443,25.4463109 C56.1498139,24.7641967 55.686284,24.1792683 55.0963802,23.7073866 C53.7670431,22.6441676 51.8803331,22.5306526 50.4091452,23.3423769 C50.5937952,21.6785733 49.7205471,20.0397903 48.1437896,19.2892277 C47.4594774,18.9635488 46.7241215,18.7983537 45.9584074,18.7983537 C45.1926039,18.7983537 44.4574861,18.9634318 43.7732632,19.2891106 C42.1325747,20.0700785 41.2795655,21.732419 41.5268667,23.3940571 C40.0814834,22.5419778 38.2084049,22.6213124 36.8505844,23.7072695 C36.2606509,24.1791512 35.7973591,24.7641967 35.4730906,25.4461938 C35.14909,26.128308 34.9900362,26.8531475 35.000483,27.6006374 C35.0171206,28.7802393 35.5592547,29.9021033 36.4883085,30.6782718 L36.4883085,30.6782718 Z M42.8407271,29.4838332 L45.6167275,29.4838332 L44.9160158,33.956745 C44.8889314,34.128466 44.986584,34.2960316 45.1510844,34.3599441 C45.1965624,34.3776488 45.2437666,34.3861061 45.2903755,34.3861061 C45.4125826,34.3861061 45.5308015,34.3279293 45.6031257,34.2240129 L50.018505,27.8851711 C50.0980319,27.7710708 50.1066335,27.6231707 50.0411845,27.5008472 C49.9757355,27.3785238 49.8465639,27.302057 49.7059037,27.302057 L46.8217741,27.302057 L47.5151641,23.1270233 C47.5437664,22.9555656 47.4476317,22.7872977 47.2839349,22.7218927 C47.120119,22.6563999 46.9319867,22.7109187 46.8307328,22.8534636 L42.5302091,28.8975293 C42.4491643,29.0112491 42.439283,29.1599687 42.5046129,29.2831993 C42.5698535,29.4064299 42.6993526,29.4838332 42.8407271,29.4838332 L42.8407271,29.4838332 Z" id="鲜花-秒杀" fill="#EB5567"></path>
                    </g>
                </g>
            </g>
        </g>
    </g>
</svg>