<?xml version="1.0" encoding="UTF-8" standalone="no"?>
<svg width="24px" height="24px" viewBox="0 0 24 24" version="1.1" xmlns="http://www.w3.org/2000/svg" xmlns:xlink="http://www.w3.org/1999/xlink">
    <!-- Generator: Sketch 45.1 (43504) - http://www.bohemiancoding.com/sketch -->
    <title>Group 3</title>
    <desc>Created with Sketch.</desc>
    <defs></defs>
    <g id="Symbols" stroke="none" stroke-width="1" fill="none" fill-rule="evenodd">
        <g id="Icon/会员中心/我的团购">
            <g id="Icon/模板"></g>
            <g id="Group-3-Copy-2" transform="translate(13.657741, 10.990862) rotate(45.000000) translate(-13.657741, -10.990862) translate(6.657741, 0.490862)" stroke="#666666" stroke-width="0.8">
                <path d="M0.932642014,6.06636817 C0.803516997,6.18026713 0.729546653,6.34415033 0.729546653,6.51633118 L0.729546653,19.9290265 C0.729546653,20.2603973 0.998175803,20.5290265 1.32954665,20.5290265 L12.3673574,20.5290265 C12.6987283,20.5290265 12.9673574,20.2603973 12.9673574,19.9290265 L12.9673574,6.49784322 C12.9673574,6.33212427 12.8988167,6.17378493 12.7779873,6.06036967 L7.44066802,1.05055201 C7.21500094,0.838732019 6.86524316,0.83332261 6.63313351,1.03806255 L0.932642014,6.06636817 Z" id="Combined-Shape"></path>
                <rect id="Rectangle-18-Copy-2" x="0.842911743" y="17.0044595" width="12.1244457" height="3.524567" rx="1"></rect>
                <ellipse id="Oval-7" cx="6.90513458" cy="9.30204308" rx="1.76242441" ry="1.71588559"></ellipse>
            </g>
        </g>
    </g>
</svg>