<?xml version="1.0" encoding="UTF-8" standalone="no"?>
<svg width="24px" height="24px" viewBox="0 0 24 24" version="1.1" xmlns="http://www.w3.org/2000/svg" xmlns:xlink="http://www.w3.org/1999/xlink">
    <!-- Generator: Sketch 45.1 (43504) - http://www.bohemiancoding.com/sketch -->
    <title>Icon/会员中心/兑换卡兑换</title>
    <desc>Created with Sketch.</desc>
    <defs></defs>
    <g id="Symbols" stroke="none" stroke-width="1" fill="none" fill-rule="evenodd">
        <g id="Icon/会员中心/兑换卡兑换">
            <g id="Icon/模板"></g>
            <g id="Group-3-Copy" transform="translate(1.000000, 3.471185)" stroke="#666666" stroke-width="0.8">
                <rect id="Rectangle-2" x="0.547769917" y="1.10837779" width="20.8868083" height="14.7843115" rx="1"></rect>
                <path d="M8.16258187,6.66286274 C8.16966971,6.71757777 8.17757393,6.77610202 8.1863266,6.838015 C8.24664395,7.26467612 8.32593402,7.69092094 8.4258853,8.08599455 C8.60161522,8.78059548 8.82324219,9.29653415 9.06261807,9.53591003 C9.73632456,10.2096165 10.8286186,10.2096165 11.5023251,9.53591003 C12.1760316,8.86220354 12.1760316,7.67254749 11.5023251,6.99884099 C11.2820966,6.77861253 10.6751483,6.63728739 9.83449979,6.60700307 C9.33939298,6.58916687 8.80467006,6.60885466 8.27960134,6.65269356 C8.23881919,6.65609854 8.19977228,6.65950006 8.16258187,6.66286274 Z" id="Oval-Copy-3"></path>
                <path d="M8.24749909,6.66286274 C8.21030868,6.65950006 8.17126177,6.65609854 8.13047962,6.65269356 C7.6054109,6.60885466 7.07068798,6.58916687 6.57558117,6.60700307 C5.73493271,6.63728739 5.12798432,6.77861253 4.90775586,6.99884099 C4.23404937,7.67254749 4.23404937,8.86220354 4.90775586,9.53591003 C5.58146236,10.2096165 6.6737564,10.2096165 7.34746289,9.53591003 C7.58683877,9.29653415 7.80846574,8.78059548 7.98419566,8.08599455 C8.08414694,7.69092094 8.163437,7.26467612 8.22375436,6.838015 C8.23250703,6.77610202 8.24041125,6.71757777 8.24749909,6.66286274 Z" id="Oval-Copy-4"></path>
                <path d="M8.18434355,6.45955627 C8.22153396,6.46291896 8.26058087,6.46632048 8.30136302,6.46972546 C8.82643174,6.51356435 9.36115466,6.53325215 9.85626147,6.51541595 C10.6969099,6.48513163 11.3038583,6.34380649 11.5240868,6.12357803 C12.1977933,5.44987153 12.1977933,4.26021548 11.5240868,3.58650899 C10.8503803,2.91280249 9.75808624,2.91280249 9.08437975,3.58650899 C8.84500387,3.82588486 8.6233769,4.34182354 8.44764698,5.03642447 C8.3476957,5.43149807 8.26840563,5.8577429 8.20808828,6.28440402 C8.19933561,6.346317 8.19143139,6.40484125 8.18434355,6.45955627 Z" id="Oval-Copy-6"></path>
                <path d="M8.26926077,6.45955627 C8.26217293,6.40484125 8.25426871,6.346317 8.24551604,6.28440402 C8.18519868,5.8577429 8.10590862,5.43149807 8.00595734,5.03642447 C7.83022742,4.34182354 7.60860045,3.82588486 7.36922457,3.58650899 C6.69551808,2.91280249 5.60322404,2.91280249 4.92951754,3.58650899 C4.25581105,4.26021548 4.25581105,5.44987153 4.92951754,6.12357803 C5.149746,6.34380649 5.75669439,6.48513163 6.59734285,6.51541595 C7.09244966,6.53325215 7.62717258,6.51356435 8.1522413,6.46972546 C8.19302345,6.46632048 8.23207036,6.46291896 8.26926077,6.45955627 Z" id="Oval-Copy-5"></path>
                <path d="M8.0815021,1.52881522 L8.0815021,15.5288152" id="Line" stroke-linecap="square"></path>
                <path d="M20.7468187,6.49022967 L0.705123057,6.49022967" id="Line-Copy" stroke-linecap="square"></path>
            </g>
        </g>
    </g>
</svg>