<?xml version="1.0" encoding="UTF-8" standalone="no"?>
<svg width="24px" height="24px" viewBox="0 0 24 24" version="1.1" xmlns="http://www.w3.org/2000/svg" xmlns:xlink="http://www.w3.org/1999/xlink">
    <!-- Generator: Sketch 45.1 (43504) - http://www.bohemiancoding.com/sketch -->
    <title>Icon/会员中心/我的优惠券</title>
    <desc>Created with Sketch.</desc>
    <defs></defs>
    <g id="Symbols" stroke="none" stroke-width="1" fill="none" fill-rule="evenodd">
        <g id="Icon/会员中心/我的优惠券">
            <g id="Icon/模板"></g>
            <g id="Group-4-Copy" transform="translate(0.922609, 3.480072)">
                <g id="单色" transform="translate(4.719980, 1.000000)" fill="#666666">
                    <path d="M9.56269847,1.78010658 L10.4321684,1.78010658 L10.4321684,0 L9.56269847,0 L9.56269847,1.78010658 Z M9.56269847,5.34031974 L10.4321684,5.34031974 L10.4321684,3.56021316 L9.56269847,3.56021316 L9.56269847,5.34031974 Z M9.56269847,8.90053289 L10.4321684,8.90053289 L10.4321684,7.12042631 L9.56269847,7.12042631 L9.56269847,8.90053289 Z M9.56269847,12.460746 L10.4321684,12.460746 L10.4321684,10.6806395 L9.56269847,10.6806395 L9.56269847,12.460746 Z M9.56269847,15.0318133 L10.4321684,15.0318133 L10.4321684,14.2408526 L9.56269847,14.2408526 L9.56269847,15.0318133 Z" id="Fill-4"></path>
                    <path d="M1.32652293,10.9211198 C1.25529595,10.9211198 1.18406898,10.8920448 1.12953583,10.834488 C1.02102598,10.7181877 1.02102598,10.5306831 1.12953583,10.4143828 L5.67804598,5.56477915 C5.78711229,5.44847885 5.96295389,5.44847885 6.07146373,5.56477915 C6.18053004,5.68048607 6.18053004,5.86799063 6.07146373,5.98429093 L1.52351004,10.834488 C1.46897688,10.8920448 1.39774991,10.9211198 1.32652293,10.9211198" id="Fill-6"></path>
                    <path d="M2.04869769,5.79227677 C1.6430378,5.79227677 1.31250012,6.1441445 1.31250012,6.5767104 C1.31250012,7.00986967 1.6430378,7.3617374 2.04869769,7.3617374 C2.45435758,7.3617374 2.7843388,7.00986967 2.7843388,6.5767104 C2.7843388,6.1441445 2.45435758,5.79227677 2.04869769,5.79227677 M2.04869769,7.95510626 C1.33587147,7.95510626 0.756039371,7.33681591 0.756039371,6.5767104 C0.756039371,5.81719826 1.33587147,5.19890791 2.04869769,5.19890791 C2.76096745,5.19890791 3.34079955,5.81719826 3.34079955,6.5767104 C3.34079955,7.33681591 2.76096745,7.95510626 2.04869769,7.95510626" id="Fill-7"></path>
                    <path d="M5.2603109,9.02044071 C4.85465101,9.02044071 4.52466979,9.37290181 4.52466979,9.80487434 C4.52466979,10.2374402 4.85465101,10.5899013 5.2603109,10.5899013 C5.66597079,10.5899013 5.99595201,10.2374402 5.99595201,9.80487434 C5.99595201,9.37290181 5.66597079,9.02044071 5.2603109,9.02044071 M5.2603109,11.1832702 C4.54804114,11.1832702 3.96820904,10.5649799 3.96820904,9.80487434 C3.96820904,9.0453622 4.54804114,8.42707185 5.2603109,8.42707185 C5.97258066,8.42707185 6.55241276,9.0453622 6.55241276,9.80487434 C6.55241276,10.5649799 5.97258066,11.1832702 5.2603109,11.1832702" id="Fill-8"></path>
                </g>
                <path d="M0.4,4.90446285 C2.17321555,5.11029731 3.54665304,6.66835978 3.54665304,8.55335969 C3.54665304,10.4383596 2.17321555,11.9964221 0.4,12.2022565 L0.4,16.225709 C0.4,16.2840339 0.448373085,16.3332652 0.501441037,16.3332652 L21.5251303,16.3332652 C21.5834961,16.3332652 21.6265713,16.289271 21.6265713,16.225709 L21.6265713,12.2022565 C19.8533557,11.9964221 18.4799183,10.4383596 18.4799183,8.55335969 C18.4799183,6.66835978 19.8533557,5.11029731 21.6265713,4.90446285 L21.6265713,0.881010346 C21.6265713,0.822685483 21.5781982,0.773454157 21.5251303,0.773454157 L0.501441037,0.773454157 C0.44307515,0.773454157 0.4,0.817448417 0.4,0.881010346 L0.4,4.90446285 Z" id="Combined-Shape" stroke="#666666" stroke-width="0.8"></path>
            </g>
        </g>
    </g>
</svg>