<?xml version="1.0" encoding="UTF-8" standalone="no"?>
<svg width="16px" height="16px" viewBox="0 0 16 16" version="1.1" xmlns="http://www.w3.org/2000/svg" xmlns:xlink="http://www.w3.org/1999/xlink">
    <!-- Generator: Sketch 45.1 (43504) - http://www.bohemiancoding.com/sketch -->
    <title>小图标/标题图标/配送地址</title>
    <desc>Created with Sketch.</desc>
    <defs></defs>
    <g id="Symbols" stroke="none" stroke-width="1" fill="none" fill-rule="evenodd">
        <g id="小图标/标题图标/配送地址" stroke="#444444" stroke-width="0.8">
            <path d="M7.91980208,15.4478074 L7.92452243,15.4524191 C7.96629208,15.4939063 8.0339947,15.4939909 8.08019792,15.4478074 C8.12228212,15.407365 8.20291115,15.3283031 8.31655923,15.2143214 C8.506945,15.0233768 8.71933997,14.8048756 8.94821094,14.5625321 C9.6022608,13.8699815 10.2562959,13.1262345 10.865883,12.3614348 C11.5436079,11.5111482 12.1234503,10.6876254 12.5749534,9.91283627 C13.2415233,8.76898775 13.6,7.7779119 13.6,7 C13.6,3.9072054 11.0927946,1.4 8,1.4 C4.9072054,1.4 2.4,3.9072054 2.4,7 C2.4,7.7779119 2.75847673,8.76898775 3.42504661,9.91283627 C3.87654968,10.6876254 4.45639207,11.5111482 5.13411697,12.3614348 C5.74370409,13.1262345 6.3977392,13.8699815 7.05178906,14.5625321 C7.28066003,14.8048756 7.493055,15.0233768 7.68344077,15.2143214 C7.79708885,15.3283031 7.87771788,15.407365 7.91980208,15.4478074 Z M8,9.4 C6.6745166,9.4 5.6,8.3254834 5.6,7 C5.6,5.6745166 6.6745166,4.6 8,4.6 C9.3254834,4.6 10.4,5.6745166 10.4,7 C10.4,8.3254834 9.3254834,9.4 8,9.4 Z" id="1px"></path>
        </g>
    </g>
</svg>